<svg xmlns="http://www.w3.org/2000/svg" width="512" height="512" viewBox="0 0 512 512">
<g>
<path d="M 180.66 298.49 C179.10,300.97 177.68,303.00 177.52,303.00 C177.35,303.00 176.94,301.88 176.59,300.52 C176.13,298.66 177.47,295.21 181.99,286.69 C185.29,280.44 188.00,275.08 188.00,274.78 C188.00,274.47 186.89,273.94 185.53,273.60 C182.49,272.83 180.63,269.60 181.42,266.45 C181.90,264.54 183.34,263.68 188.91,262.03 L 195.79 259.98 L 199.82 250.74 C205.15,238.54 212.01,221.31 213.17,217.25 C213.75,215.21 215.19,213.44 217.05,212.48 C218.67,211.64 220.00,210.16 220.00,209.20 C220.00,203.66 226.88,201.00 230.60,205.11 C232.37,207.07 232.48,208.69 232.15,228.76 L 231.79 250.30 L 237.50 249.71 C240.64,249.39 243.28,248.98 243.36,248.81 C255.10,223.54 265.72,210.82 276.28,209.38 C284.70,208.22 290.00,213.40 290.00,222.77 C290.00,229.37 286.61,241.84 284.14,244.30 C282.23,246.21 282.00,246.23 279.56,244.63 C276.57,242.67 276.48,241.58 278.54,231.82 C280.31,223.44 279.86,220.00 277.02,220.00 C272.81,220.00 263.21,231.64 256.63,244.72 C253.42,251.08 253.38,251.97 256.25,252.12 C258.06,252.21 257.93,252.36 255.60,252.87 C251.64,253.73 249.92,258.81 249.28,271.50 C248.83,280.61 248.97,281.74 250.90,284.17 C252.07,285.64 254.36,287.14 256.00,287.50 C259.75,288.32 268.31,285.88 277.02,281.49 C283.86,278.04 296.87,269.56 298.32,267.61 C298.76,267.00 298.81,267.62 298.42,268.99 C297.81,271.14 297.92,271.31 299.22,270.23 C300.05,269.54 301.01,266.91 301.36,264.38 C301.92,260.28 301.72,259.57 299.50,257.82 C294.74,254.08 297.03,247.00 302.99,247.00 C305.54,247.00 306.02,246.45 307.57,241.75 C308.51,238.86 309.52,235.87 309.81,235.11 C310.21,234.01 309.57,233.86 306.80,234.38 C302.37,235.21 298.75,232.65 298.75,228.69 C298.75,224.93 300.70,223.00 304.50,223.00 C311.08,223.00 313.66,221.94 315.11,218.66 C315.92,216.83 317.64,215.12 319.25,214.57 C321.59,213.76 322.42,214.02 324.90,216.40 L 327.81 219.19 L 350.41 214.60 C375.05,209.59 376.37,209.40 373.75,211.39 C371.28,213.27 371.57,213.80 374.75,213.20 C377.26,212.72 377.38,212.83 376.07,214.41 C372.67,218.53 363.34,221.57 335.85,227.52 L 323.19 230.26 L 320.60 237.30 C319.17,241.17 318.15,244.48 318.33,244.67 C318.52,244.85 324.87,243.86 332.45,242.45 C340.04,241.05 346.49,240.15 346.79,240.45 C347.09,240.75 346.81,241.00 346.17,241.00 C345.52,241.00 345.00,241.43 345.00,241.96 C345.00,242.49 346.77,242.29 349.00,241.50 C353.85,239.79 354.02,240.40 349.75,244.27 C345.15,248.45 339.71,250.57 326.36,253.38 C319.96,254.73 314.34,256.44 313.89,257.17 C311.23,261.46 309.30,278.36 310.92,283.27 C312.52,288.10 314.39,288.51 319.32,285.13 C328.54,278.81 340.86,273.79 355.28,270.49 C361.69,269.03 387.92,267.36 385.25,268.59 C382.92,269.66 383.99,271.00 387.25,271.10 C389.04,271.15 392.75,271.77 395.50,272.48 L 400.50 273.76 L 392.97 273.88 C388.45,273.95 384.66,274.54 383.47,275.36 C382.39,276.11 376.33,277.28 370.00,277.97 C350.34,280.11 334.69,285.85 323.62,295.01 C318.37,299.34 314.86,300.02 310.20,297.60 C304.36,294.56 300.00,287.26 300.00,280.53 C300.00,276.47 299.09,276.12 296.40,279.15 C292.13,283.99 276.73,293.02 268.29,295.65 C260.60,298.05 259.32,298.19 254.71,297.12 C248.34,295.65 243.62,292.11 240.80,286.69 C239.02,283.28 238.62,280.83 238.63,273.50 C238.64,268.55 239.17,262.73 239.80,260.56 C240.43,258.39 240.82,256.49 240.67,256.34 C240.52,256.18 238.75,256.83 236.74,257.78 C234.46,258.86 233.23,260.06 233.46,261.00 C233.67,261.83 234.13,265.65 234.49,269.50 C234.85,273.35 235.79,279.34 236.57,282.81 C238.51,291.37 238.39,292.70 235.55,294.56 C232.11,296.82 229.57,295.65 226.49,290.40 C222.00,282.74 206.29,273.03 200.27,274.19 C199.31,274.37 196.91,277.44 194.94,281.01 C192.97,284.58 190.89,287.41 190.31,287.29 C189.74,287.18 188.48,288.83 187.51,290.97 C186.55,293.10 185.26,294.65 184.63,294.42 C184.01,294.18 182.22,296.02 180.66,298.49 ZM 155.56 317.06 C146.79,318.13 139.31,319.00 138.94,319.00 C138.57,319.00 137.09,318.07 135.65,316.94 L 133.03 314.88 L 135.27 312.50 C137.29,310.35 139.22,309.93 155.50,308.10 C209.37,302.04 238.72,300.58 292.00,301.32 C314.83,301.64 338.67,302.37 345.00,302.96 C358.63,304.21 377.37,307.68 381.28,309.67 C383.84,310.97 383.93,311.21 382.45,312.70 C380.96,314.18 377.83,314.13 343.22,312.02 C310.11,310.01 300.23,309.80 260.56,310.30 C235.78,310.61 210.77,311.35 205.00,311.94 C199.23,312.53 189.32,313.48 183.00,314.07 C176.68,314.65 164.33,315.99 155.56,317.06 ZM 161.24 299.75 C159.17,301.35 157.16,301.28 153.90,299.51 C151.52,298.21 151.24,297.37 150.61,289.80 C148.94,269.47 143.97,233.62 142.01,227.72 C140.84,224.20 141.65,222.08 144.60,220.96 C148.33,219.55 152.73,221.62 153.88,225.33 C154.42,227.07 155.60,237.28 156.51,248.01 C157.41,258.75 158.49,269.10 158.90,271.01 C159.62,274.40 159.67,274.43 160.45,272.00 C162.04,267.04 173.19,242.46 174.51,241.00 C175.25,240.18 175.88,239.16 175.92,238.74 C176.05,236.93 181.13,228.00 182.02,228.00 C182.56,228.00 183.00,227.54 183.00,226.98 C183.00,225.24 195.63,205.84 201.20,199.01 C214.83,182.31 225.14,174.60 212.99,190.20 C208.60,195.84 205.01,200.91 205.03,201.48 C205.04,202.04 206.38,200.93 208.00,199.00 C209.62,197.07 210.96,195.86 210.97,196.30 C211.00,197.07 203.28,208.95 202.08,210.00 C201.76,210.27 201.42,210.98 201.31,211.56 C201.21,212.14 199.01,216.19 196.43,220.56 C191.68,228.58 180.41,250.76 178.04,256.75 C177.34,258.54 176.34,260.00 175.82,260.00 C175.30,260.00 175.15,260.44 175.48,260.97 C175.81,261.50 175.44,263.19 174.66,264.72 C173.88,266.25 170.90,274.48 168.05,283.00 C165.20,291.52 162.13,299.06 161.24,299.75 ZM 181.00 329.01 C168.62,330.05 156.70,331.15 154.50,331.47 C151.50,331.90 149.98,331.60 148.43,330.26 C146.51,328.60 146.48,328.36 148.02,326.74 C148.97,325.74 151.14,325.00 153.13,325.00 C155.04,325.00 157.08,324.52 157.67,323.93 C158.25,323.35 162.84,322.79 167.87,322.68 C172.89,322.58 177.00,322.10 177.00,321.61 C177.00,321.13 179.04,321.01 181.53,321.35 C184.03,321.69 191.56,321.54 198.28,321.01 C216.94,319.55 265.59,317.89 281.93,318.15 C289.94,318.28 301.95,318.27 308.61,318.12 C315.27,317.98 323.37,318.33 326.61,318.90 C329.85,319.47 337.45,320.40 343.50,320.98 C359.24,322.46 362.93,322.91 368.00,324.00 C380.88,326.76 380.39,326.90 359.00,326.47 C253.76,324.38 232.86,324.67 181.00,329.01 ZM 209.15 255.19 C208.80,256.10 210.81,255.73 218.32,253.51 L 222.50 252.27 L 222.13 243.02 C221.50,227.05 221.16,226.98 214.96,241.51 C211.96,248.54 209.34,254.70 209.15,255.19 ZM 221.19 274.37 C223.01,275.80 224.87,276.98 225.32,276.99 C226.10,277.00 225.40,267.55 224.35,263.75 C223.72,261.47 221.74,261.54 214.10,264.12 L 207.80 266.25 L 212.84 269.00 C215.61,270.52 219.36,272.93 221.19,274.37 Z" fill="rgb(5,5,5)"/>
<path d="M 358.50 322.42 C360.02,322.61 361.57,322.83 363.21,323.11 C359.42,322.53 354.29,321.99 343.50,320.98 C337.45,320.40 329.85,319.47 326.61,318.90 C323.37,318.33 315.27,317.98 308.61,318.12 C301.95,318.27 289.94,318.28 281.93,318.15 C275.98,318.05 265.74,318.21 254.23,318.53 C263.10,318.22 271.11,317.97 276.50,317.84 C280.90,317.74 284.95,317.36 285.50,316.99 C286.05,316.62 289.65,316.71 293.50,317.18 C302.02,318.23 324.65,318.38 331.79,317.43 C336.22,316.85 337.00,316.99 337.00,318.37 C337.00,319.60 337.97,320.00 340.94,320.00 C343.11,320.00 345.17,319.53 345.53,318.96 C346.26,317.77 349.78,318.62 352.00,320.52 C352.83,321.22 355.75,322.08 358.50,322.42 ZM 206.97 320.44 C203.66,320.63 200.72,320.82 198.28,321.01 C191.56,321.54 184.03,321.69 181.53,321.35 C179.04,321.01 177.00,321.13 177.00,321.61 C177.00,322.10 172.89,322.58 167.87,322.68 C162.84,322.79 158.25,323.35 157.67,323.93 C157.08,324.52 155.04,325.00 153.13,325.00 C151.85,325.00 150.50,325.31 149.44,325.79 C150.57,324.88 151.73,323.94 152.28,323.50 C152.95,322.95 157.23,322.50 161.79,322.50 C167.52,322.50 170.32,322.10 170.88,321.19 C171.47,320.24 173.08,320.07 176.84,320.57 C180.41,321.05 182.00,320.91 182.00,320.13 C182.00,318.58 187.51,318.70 188.82,320.28 C189.62,321.25 192.20,321.39 199.48,320.85 C200.96,320.75 203.57,320.60 206.97,320.44 ZM 362.57 269.45 C368.33,268.61 374.26,268.13 380.25,268.03 C386.45,267.92 388.00,268.19 388.00,269.36 C388.00,270.15 389.36,270.94 392.06,271.73 C390.18,271.38 388.35,271.13 387.25,271.10 C383.99,271.00 382.92,269.66 385.25,268.59 C387.29,267.65 372.54,268.40 362.57,269.45 ZM 313.23 287.03 C314.61,287.79 316.51,287.06 319.58,284.94 C325.86,280.62 333.46,277.01 341.89,274.25 C333.16,277.20 325.53,280.87 319.32,285.13 C316.43,287.12 314.58,287.79 313.23,287.03 ZM 147.40 327.43 C146.54,328.47 146.82,328.87 148.43,330.26 C148.49,330.31 148.55,330.36 148.61,330.41 C148.53,330.34 148.45,330.27 148.36,330.20 L 146.23 328.36 ZM 376.04 326.49 C377.33,326.30 376.35,325.90 373.44,325.21 C374.42,325.43 375.44,325.68 376.50,325.93 C377.59,326.20 377.48,326.38 376.04,326.49 ZM 400.49 273.76 L 400.50 273.77 L 392.97 273.88 C390.78,273.92 388.77,274.07 387.14,274.32 C388.77,274.07 390.79,273.92 392.97,273.88 Z" fill="rgb(186,186,186)"/>
<path d="M 0.00 256.00 L 0.00 0.00 L 256.00 0.00 L 512.00 0.00 L 512.00 256.00 L 512.00 512.00 L 256.00 512.00 L 0.00 512.00 L 0.00 256.00 ZM 181.00 329.01 C232.86,324.67 253.76,324.38 359.00,326.47 C374.12,326.77 379.31,326.61 376.50,325.93 C368.85,324.08 363.47,323.03 358.50,322.42 C355.75,322.08 352.83,321.22 352.00,320.52 C349.78,318.62 346.26,317.77 345.53,318.96 C345.17,319.53 343.11,320.00 340.94,320.00 C337.97,320.00 337.00,319.60 337.00,318.37 C337.00,316.99 336.22,316.85 331.79,317.43 C324.65,318.38 302.02,318.23 293.50,317.18 C289.65,316.71 286.05,316.62 285.50,316.99 C284.95,317.36 280.90,317.74 276.50,317.84 C257.95,318.27 208.35,320.21 199.48,320.85 C192.20,321.39 189.62,321.25 188.82,320.28 C187.51,318.70 182.00,318.58 182.00,320.13 C182.00,320.91 180.41,321.05 176.84,320.57 C173.08,320.07 171.47,320.24 170.88,321.19 C170.32,322.10 167.52,322.50 161.79,322.50 C157.23,322.50 152.95,322.95 152.28,323.50 C151.60,324.05 149.96,325.37 148.64,326.43 L 146.23 328.36 L 148.36 330.20 C149.98,331.60 151.47,331.90 154.50,331.47 C156.70,331.15 168.62,330.05 181.00,329.01 ZM 155.56 317.06 C164.33,315.99 176.68,314.65 183.00,314.07 C189.32,313.48 199.23,312.53 205.00,311.94 C210.77,311.35 235.78,310.61 260.56,310.30 C300.23,309.80 310.11,310.01 343.22,312.02 C377.83,314.13 380.96,314.18 382.45,312.70 C383.93,311.21 383.84,310.97 381.28,309.67 C377.37,307.68 358.63,304.21 345.00,302.96 C338.67,302.37 314.83,301.64 292.00,301.32 C238.72,300.58 209.37,302.04 155.50,308.10 C139.22,309.93 137.29,310.35 135.27,312.50 L 133.03 314.88 L 135.65 316.94 C137.09,318.07 138.57,319.00 138.94,319.00 C139.31,319.00 146.79,318.13 155.56,317.06 ZM 180.66 298.49 C182.22,296.02 184.01,294.18 184.63,294.42 C185.26,294.65 186.55,293.10 187.51,290.97 C188.48,288.83 189.74,287.18 190.31,287.29 C190.89,287.41 192.97,284.58 194.94,281.01 C196.91,277.44 199.31,274.37 200.27,274.19 C206.29,273.03 222.00,282.74 226.49,290.40 C229.57,295.65 232.11,296.82 235.55,294.56 C238.39,292.70 238.51,291.37 236.57,282.81 C235.79,279.34 234.85,273.35 234.49,269.50 C234.13,265.65 233.67,261.83 233.46,261.00 C233.23,260.06 234.46,258.86 236.74,257.78 C238.75,256.83 240.52,256.18 240.67,256.34 C240.82,256.49 240.43,258.39 239.80,260.56 C239.17,262.73 238.64,268.55 238.63,273.50 C238.62,280.83 239.02,283.28 240.80,286.69 C243.62,292.11 248.34,295.65 254.71,297.12 C259.32,298.19 260.60,298.05 268.29,295.65 C276.73,293.02 292.13,283.99 296.40,279.15 C299.09,276.12 300.00,276.47 300.00,280.53 C300.00,287.26 304.36,294.56 310.20,297.60 C314.86,300.02 318.37,299.34 323.62,295.01 C334.69,285.85 350.34,280.11 370.00,277.97 C376.33,277.28 382.39,276.11 383.47,275.36 C384.66,274.54 388.45,273.95 392.97,273.88 L 400.50 273.77 L 394.25 272.30 C390.09,271.32 388.00,270.34 388.00,269.36 C388.00,268.19 386.45,267.92 380.25,268.03 C356.90,268.42 334.53,274.66 319.58,284.94 C314.39,288.52 312.54,288.16 310.92,283.27 C309.30,278.36 311.23,261.46 313.89,257.17 C314.34,256.44 319.96,254.73 326.36,253.38 C339.71,250.57 345.15,248.45 349.75,244.27 C354.02,240.40 353.85,239.79 349.00,241.50 C346.77,242.29 345.00,242.49 345.00,241.96 C345.00,241.43 345.52,241.00 346.17,241.00 C346.81,241.00 347.09,240.75 346.79,240.45 C346.49,240.15 340.04,241.05 332.45,242.45 C324.87,243.86 318.52,244.85 318.33,244.67 C318.15,244.48 319.17,241.17 320.60,237.30 L 323.19 230.26 L 335.85 227.52 C363.34,221.57 372.67,218.53 376.07,214.41 C377.38,212.83 377.26,212.72 374.75,213.20 C371.57,213.80 371.28,213.27 373.75,211.39 C376.37,209.40 375.05,209.59 350.41,214.60 L 327.81 219.19 L 324.90 216.40 C322.42,214.02 321.59,213.76 319.25,214.57 C317.64,215.12 315.92,216.83 315.11,218.66 C313.66,221.94 311.08,223.00 304.50,223.00 C300.70,223.00 298.75,224.93 298.75,228.69 C298.75,232.65 302.37,235.21 306.80,234.38 C309.57,233.86 310.21,234.01 309.81,235.11 C309.52,235.87 308.51,238.86 307.57,241.75 C306.02,246.45 305.54,247.00 302.99,247.00 C297.03,247.00 294.74,254.08 299.50,257.82 C301.72,259.57 301.92,260.28 301.36,264.38 C301.01,266.91 300.05,269.54 299.22,270.23 C297.92,271.31 297.81,271.14 298.42,268.99 C298.81,267.62 298.76,267.00 298.32,267.61 C296.87,269.56 283.86,278.04 277.02,281.49 C268.31,285.88 259.75,288.32 256.00,287.50 C254.36,287.14 252.07,285.64 250.90,284.17 C248.97,281.74 248.83,280.61 249.28,271.50 C249.92,258.81 251.64,253.73 255.60,252.87 C257.93,252.36 258.06,252.21 256.25,252.12 C253.38,251.97 253.42,251.08 256.63,244.72 C263.21,231.64 272.81,220.00 277.02,220.00 C279.86,220.00 280.31,223.44 278.54,231.82 C276.48,241.58 276.57,242.67 279.56,244.63 C282.00,246.23 282.23,246.21 284.14,244.30 C286.61,241.84 290.00,229.37 290.00,222.77 C290.00,213.40 284.70,208.22 276.28,209.38 C265.72,210.82 255.10,223.54 243.36,248.81 C243.28,248.98 240.64,249.39 237.50,249.71 L 231.79 250.30 L 232.15 228.76 C232.48,208.69 232.37,207.07 230.60,205.11 C226.88,201.00 220.00,203.66 220.00,209.20 C220.00,210.16 218.67,211.64 217.05,212.48 C215.19,213.44 213.75,215.21 213.17,217.25 C212.01,221.31 205.15,238.54 199.82,250.74 L 195.79 259.98 L 188.91 262.03 C183.34,263.68 181.90,264.54 181.42,266.45 C180.63,269.60 182.49,272.83 185.53,273.60 C186.89,273.94 188.00,274.47 188.00,274.78 C188.00,275.08 185.29,280.44 181.99,286.69 C177.47,295.21 176.13,298.66 176.59,300.52 C176.94,301.88 177.35,303.00 177.52,303.00 C177.68,303.00 179.10,300.97 180.66,298.49 ZM 161.24 299.75 C162.13,299.06 165.20,291.52 168.05,283.00 C170.90,274.48 173.88,266.25 174.66,264.72 C175.44,263.19 175.81,261.50 175.48,260.97 C175.15,260.44 175.30,260.00 175.82,260.00 C176.34,260.00 177.34,258.54 178.04,256.75 C180.41,250.76 191.68,228.58 196.43,220.56 C199.01,216.19 201.21,212.14 201.31,211.56 C201.42,210.98 201.76,210.27 202.08,210.00 C203.28,208.95 211.00,197.07 210.97,196.30 C210.96,195.86 209.62,197.07 208.00,199.00 C206.38,200.93 205.04,202.04 205.03,201.48 C205.01,200.91 208.60,195.84 212.99,190.20 C225.14,174.60 214.83,182.31 201.20,199.01 C195.63,205.84 183.00,225.24 183.00,226.98 C183.00,227.54 182.56,228.00 182.02,228.00 C181.13,228.00 176.05,236.93 175.92,238.74 C175.88,239.16 175.25,240.18 174.51,241.00 C173.19,242.46 162.04,267.04 160.45,272.00 C159.67,274.43 159.62,274.40 158.90,271.01 C158.49,269.10 157.41,258.75 156.51,248.01 C155.60,237.28 154.42,227.07 153.88,225.33 C152.73,221.62 148.33,219.55 144.60,220.96 C141.65,222.08 140.84,224.20 142.01,227.72 C143.97,233.62 148.94,269.47 150.61,289.80 C151.24,297.37 151.52,298.21 153.90,299.51 C157.16,301.28 159.17,301.35 161.24,299.75 ZM 221.19 274.37 C219.36,272.93 215.61,270.52 212.84,269.00 L 207.80 266.25 L 214.10 264.12 C221.74,261.54 223.72,261.47 224.35,263.75 C225.40,267.55 226.10,277.00 225.32,276.99 C224.87,276.98 223.01,275.80 221.19,274.37 ZM 209.15 255.19 C209.34,254.70 211.96,248.54 214.96,241.51 C221.16,226.98 221.50,227.05 222.13,243.02 L 222.50 252.27 L 218.32 253.51 C210.81,255.73 208.80,256.10 209.15,255.19 Z" fill="rgb(253,253,253)"/>
</g>
</svg>